<svg width="364" height="388" viewBox="0 0 364 388" fill="none" xmlns="http://www.w3.org/2000/svg">
<path d="M185 196C186.2 189.118 181.5 180.799 179 177.5L294.5 123L364 121.5C348.5 144.5 335 192 286.5 198L185 196Z" fill="white"/>
<path fill-rule="evenodd" clip-rule="evenodd" d="M72 379C42 369.5 9.5 337 0 302C16 325 41 331 43 331C67 332.5 77.5 335 81 349.5C124.982 343.959 127.227 312.991 129.436 282.516C130.416 268.992 131.39 255.565 136 244.5C90.4 266.1 83 237 83.5 218.5C77.5 225.3 41 253 23.5 266C3.5 202 71.5 144.5 138.5 126.5C129 133 99.5 157.5 93.5 170.5C96.3 172.9 100 179.167 101.5 182C112 175 120 171.5 134.5 169C172 110 256.5 35 332.5 0C332.538 0.919545 332.577 1.83836 332.616 2.75628L332.621 2.88367C334.599 49.8346 336.478 94.451 286.5 116.5L164 175C176 182.2 178 195 173.5 208C228.7 185.2 240 243 236 275.5C215.6 247.9 165.5 255 150.5 272.5C181.7 259.7 226 286 232.5 298C228.1 316 219 330.5 213.5 336.5C200 317 178 309 150.5 309C175.7 314.6 195 338 200 353C194 362.2 166 379 153 381C154.5 366.5 141.5 343 134 336.5C139.2 350.5 139.5 379 135 385.5C121.4 389.1 90.5 387 80.5 381C83.3 377.8 85.5 369.5 85.5 364.5C80.7 372.9 74.5 377.667 72 379ZM98.5 203.5C112 188.5 161 182 156.5 218.5C189 180 119 159.5 98.5 203.5ZM41.5 222C41.5 214.5 52.5 194.5 63.5 191.5C76 196 66 218.5 41.5 222Z" fill="white"/>
</svg>